<?xml version="1.0" standalone="no"?>
<!DOCTYPE svg PUBLIC "-//W3C//DTD SVG 20010904//EN"
 "http://www.w3.org/TR/2001/REC-SVG-20010904/DTD/svg10.dtd">
<svg version="1.0" xmlns="http://www.w3.org/2000/svg"
 width="512.000000pt" height="512.000000pt" viewBox="0 0 512.000000 512.000000"
 preserveAspectRatio="xMidYMid meet">

<g transform="translate(0.000000,512.000000) scale(0.100000,-0.100000)"
fill="#f97316" stroke="none">
<path d="M2955 4223 c-385 -485 -703 -883 -707 -883 -5 0 -502 72 -1105 160
-604 88 -1104 159 -1113 158 -8 -2 379 -315 860 -697 481 -382 879 -697 884
-702 4 -4 -64 -504 -153 -1111 -89 -606 -161 -1111 -161 -1121 0 -10 315 379
701 865 386 486 705 884 709 886 5 2 504 -69 1110 -158 606 -89 1107 -160
1114 -158 9 2 -1537 1239 -1733 1387 l-23 18 161 1107 c89 609 161 1113 159
1120 -2 6 -318 -385 -703 -871z m-313 -1254 c219 -47 368 -262 329 -475 -33
-180 -165 -312 -345 -345 -271 -50 -527 206 -477 477 43 237 265 391 493 343z"/>
</g>
</svg>